<svg xmlns="http://www.w3.org/2000/svg" width="107" height="101" viewBox="0 0 107 101">
    <g fill="none" fill-rule="evenodd">
        <g fill="#FFF">
            <g>
                <g>
                    <path d="M33.927 43.374v-6.532c-1.318 5.727-4.181 11.96-7.878 15.79l3.142-1.681c2.568-1.373 4.736-4.843 4.736-7.577M33.052 6.001c-.678-2.349-1.988-4.106-3.78-5.09-.824-.452-1.745-.737-2.74-.854-2.398-.261-5.207.37-8.205 2.024L.664 11.807l10.49 5.737 18.028-9.926c1.296-.714 2.597-1.252 3.87-1.617M37.8 6.653c.47 0 .93.024 1.38.064l-7.003-3.208c.922.958 1.65 2.128 2.126 3.509 1.2-.24 2.377-.365 3.498-.365M12.044 49.123l7.036-3.787c2.876-1.549 5.219-5.318 5.219-8.405V25.848l-12.255-6.55v29.825zM24.299 17.94c0-1.353-.583-2.302-1.529-2.746-.085-.04-.582-.282-1.345-.282-1.061 0-2.055.446-2.345.584l-7.036 3.32 12.255 5.745v-6.62zM29.93 21.37c1.22-.737 2.323-.807 3.122-.324l-8.753-5.257c.226.573.353 1.245.353 2.01v6.762l5.278-3.19z" transform="translate(-740.000000, -945.000000) translate(729.347826, 938.500000) translate(11.631166, 7.500000) translate(27.347146, 13.157895)"/>
                    <path d="M41.558 8.061c-1.88-1.085-4.233-1.341-6.863-.687.254 1.148.398 2.404.398 3.787v32.394c0 2.998-2.117 6.66-4.721 8.162l-6.366 3.676-4.721 2.727-6.366 3.676v12.765l17.453-10.08c8.716-5.034 15.81-17.294 15.81-27.33v-18.91c0-5.01-1.768-8.535-4.624-10.18" transform="translate(-740.000000, -945.000000) translate(729.347826, 938.500000) translate(11.631166, 7.500000) translate(27.347146, 13.157895)"/>
                    <path d="M34.416 7.018l-.162.05h-.002c-1.148.365-2.344.894-3.568 1.605l-9.012 5.207c.498.031.99.168 1.398.404l11.423 6.558c.105.063.21.134.31.21V10.724c0-1.322-.134-2.562-.387-3.705" transform="translate(-740.000000, -945.000000) translate(729.347826, 938.500000) translate(11.631166, 7.500000) translate(27.347146, 13.157895)"/>
                </g>
            </g>
        </g>
    </g>
</svg>
